<?xml version="1.0" encoding="UTF-8" standalone="no"?>
<!-- Created with Inkscape (http://www.inkscape.org/) -->

<svg
   width="524.69312"
   height="106.06656"
   viewBox="0 0 524.69312 106.06656"
   version="1.1"
   id="svg1"
   xml:space="preserve"
   xmlns="http://www.w3.org/2000/svg"
   xmlns:svg="http://www.w3.org/2000/svg"><defs
     id="defs1" /><g
     id="layer1"
     transform="translate(-1064.5109,-249.74606)"><rect
       style="fill:#bcc4f9;fill-opacity:1;stroke-width:0.538611"
       id="rect45"
       width="50"
       height="50"
       x="966.82007"
       y="-588.62555"
       transform="rotate(45)" /><rect
       style="fill:#e4f9bc;fill-opacity:1;stroke-width:0.380856"
       id="rect46"
       width="25"
       height="50"
       x="-613.62555"
       y="-1016.8203"
       transform="rotate(135)" /><rect
       style="fill:#e4f9bc;fill-opacity:1;stroke-width:0.380856"
       id="rect47"
       width="25"
       height="50"
       x="-1041.8201"
       y="538.62555"
       transform="rotate(-135)" /><rect
       style="fill:#4f46e5;fill-opacity:1;stroke-width:0.380856"
       id="rect51"
       width="25"
       height="50"
       x="-613.62555"
       y="-1016.8203"
       transform="rotate(135)" /><rect
       style="fill:#4f46e5;fill-opacity:1;stroke-width:0.380856"
       id="rect52"
       width="25"
       height="50"
       x="-1041.8201"
       y="538.62555"
       transform="rotate(-135)" /><rect
       style="fill:#bcc4f9;fill-opacity:1;stroke-width:0.646333"
       id="rect53"
       width="59.999939"
       height="59.999939"
       x="-765.57587"
       y="-1178.7705"
       transform="rotate(135)" /><rect
       style="fill:#4f46e5;fill-opacity:1;stroke-width:0.457027"
       id="rect54"
       width="29.999969"
       height="59.999939"
       x="-1208.7704"
       y="705.57587"
       transform="rotate(-135)" /><rect
       style="fill:#4f46e5;fill-opacity:1;stroke-width:0.457027"
       id="rect55"
       width="29.999969"
       height="59.999939"
       x="675.57599"
       y="1118.7705"
       transform="rotate(-45)" /><rect
       style="fill:#bcc4f9;fill-opacity:1;stroke-width:0.538611"
       id="rect56"
       width="50"
       height="50"
       x="1275.3341"
       y="-897.13959"
       transform="rotate(45)" /><rect
       style="fill:#4f46e5;fill-opacity:1;stroke-width:0.380856"
       id="rect57"
       width="25"
       height="50"
       x="-922.13959"
       y="-1325.3342"
       transform="rotate(135)" /><rect
       style="fill:#4f46e5;fill-opacity:1;stroke-width:0.380856"
       id="rect58"
       width="25"
       height="50"
       x="-1350.3341"
       y="847.13959"
       transform="rotate(-135)" /><path
       d="m 1455.2035,249.77934 a 53,53 0 0 0 -53,53 53,53 0 0 0 53,53 53,53 0 0 0 39.3789,-17.75 l -35.25,-35.25 35.3535,-35.35352 a 53,53 0 0 0 -39.4824,-17.64648 z"
       style="fill:#4f46e5;fill-opacity:1;stroke-width:2.41102"
       id="path61" /><path
       style="fill:#bcc4f9;fill-opacity:1;stroke-width:3.74147"
       id="path742"
       d="m 1228.8158,-734.92405 a 55.906517,55.906517 0 0 1 -39.5319,-16.37464 55.906517,55.906517 0 0 1 -16.3746,-39.53188 h 55.9065 z"
       transform="matrix(0.72256824,0.6912996,-0.72256824,0.6912996,0,0)" /><rect
       style="fill:#bcc4f9;fill-opacity:1;stroke-width:0.690903"
       id="rect48"
       width="65.932549"
       height="106"
       x="1159.0289"
       y="249.81204" /><path
       d="m 1182.7775,354.22472 a 40,40 0 0 0 -0.1133,1.58789 h 0.1133 a 40,40 0 0 1 0,-1.58789 z"
       style="fill:#bcf9f6;stroke-width:1.6453"
       id="path747" /><path
       d="m 1188.5412,335.05285 a 40,40 0 0 0 -0.5176,0.75976 40,40 0 0 0 -0.7676,1.59571 40,40 0 0 1 1.2852,-2.35547 z"
       style="fill:#bcf9f6;stroke-width:1.6453"
       id="path746" /><circle
       style="opacity:0.752399;mix-blend-mode:multiply;fill:#4f46e5;fill-opacity:1;stroke-width:0.639193"
       id="path759"
       cx="1222.6649"
       cy="289.74606"
       r="40" /><path
       d="m 1259.213,355.81261 a 40,40 0 0 0 3.4512,-16.0664 40,40 0 0 0 -40,-40 40,40 0 0 0 -40,40 40,40 0 0 0 3.4512,16.0664 z"
       style="mix-blend-mode:multiply;fill:#4f46e5;fill-opacity:1;stroke-width:1.11038"
       id="path771" /></g></svg>
